<svg xmlns="http://www.w3.org/2000/svg" width="32" height="32" viewBox="0 0 42 42" id="close" preserveAspectRatio="xMidYMid meet">
	<g id="close-icon" transform="translate(0,42) scale(0.1,-0.1)">
		<path d="M12 408 c-7 -7 -12 -26 -12 -42 0 -24 13 -44 62 -93 l62 -63 -62 -63 c-49 -49 -62 -69 -62 -93 0 -38 16
		-54 54 -54 24 0 44 13 93 62 l63 62 63 -62 c49 -49 69 -62 93 -62 38 0 54 16 54 54 0 24 -13 44 -62 93 l-62 63 62
		63 c49 49 62 69 62 93 0 38 -16 54 -54 54 -24 0 -44 -13 -93 -62 l-63 -62 -63 62 c-49 49 -69 62 -93 62 -16 0 -35 -5 -42 -12z">
		</path>
	</g>
</svg>