<svg width="25" height="25" viewBox="0 0 25 25">
  <use xlink:href="#tg">
    <g id="tg">
      <path d="M546.424,729.07l5.53,2.074,2.14,6.917a0.65,0.65,0,0,0,1.034.313l3.083-2.525a0.916,0.916,0,0,1,1.121-.032l5.559,
      4.056a0.65,0.65,0,0,0,1.021-.4l4.073-19.687a0.652,0.652,0,0,0-.873-0.744l-22.694,8.8A0.657,0.657,0,0,0,546.424,
      729.07Zm7.325,0.97,10.808-6.689a0.189,0.189,0,0,1,.227.3l-8.919,8.332a1.857,1.857,0,0,0-.573,1.112l-0.3,2.262a0.279,
      0.279,0,0,1-.545.04l-1.169-4.126A1.1,1.1,0,0,1,553.749,730.04Z" transform="translate(-546 -719)"></path>
      </g>
  </use>
</svg>