<svg viewBox="0 0 125 125">
  <use xlink:href="#watch-space" fill="url(#linear-gradient-shape)" transform="translate(-7 -5)">
    <g id="watch-space">
      <path d="M1383.34,1079.98a1.34,1.34,0,0,1-.2-0.01,45.149,45.149,0,0,1-28.6-14.51,44.351,44.351,0,0,1-11.54-29.89,43.3,43.3,0,0,1,13.35-31.51,45.031,45.031,0,0,1,63.49.01,44.249,44.249,0,0,1,13.16,31.59c0,1.25-.1,2.5-0.19,3.7-0.1,1.24-.29,2.49-0.48,3.7a2.018,2.018,0,0,1-1.95,1.61,2.186,2.186,0,0,1-.36-0.03,2.041,2.041,0,0,1-1.26-.84,1.893,1.893,0,0,1-.32-1.47c0.19-1.12.29-2.27,0.38-3.38s0.09-2.27.09-3.38a40.667,40.667,0,0,0-11.9-28.78,41.212,41.212,0,0,0-58.02,0,40.473,40.473,0,0,0-1.51,55.95,40.924,40.924,0,0,0,26.08,13.26,1.987,1.987,0,0,1,1.33.7,2.012,2.012,0,0,1,.45,1.49,1.977,1.977,0,0,1-2,1.79h0Zm0.95-9.73a1.34,1.34,0,0,1-.2-0.01,35.186,35.186,0,0,1-22.24-11.4,34.419,34.419,0,0,1-8.98-23.27,35.065,35.065,0,0,1,59.85-24.8,34.636,34.636,0,0,1,10.31,24.7,36.173,36.173,0,0,1-.86,7.88,34.8,34.8,0,0,1-2.67,7.51,1.87,1.87,0,0,1-1.75,1.16,2.229,2.229,0,0,1-1.94-1.33,1.876,1.876,0,0,1,.12-1.52,24.625,24.625,0,0,0,2.16-6.64,33.109,33.109,0,0,0,.75-5.07h-4.26a1.985,1.985,0,1,1,0-3.97h4.26a31.056,31.056,0,0,0-29.03-28.9v4.24a2,2,0,0,1-4,0v-4.24a31.248,31.248,0,0,0-19.98,9.01,30.5,30.5,0,0,0-9.05,19.89h4.26a1.985,1.985,0,1,1,0,3.97h-4.26a30.66,30.66,0,0,0,7.91,18.67,31.14,31.14,0,0,0,19.82,10.14,1.9,1.9,0,0,1,1.32.7,1.994,1.994,0,0,1-1.54,3.28h0Zm3.61-28.92a5.648,5.648,0,0,1-5.45-3.78h-10.68a1.985,1.985,0,1,1,0-3.97h10.68a5.743,5.743,0,0,1,1.33-2.12l0.1-.09a5.913,5.913,0,0,1,2.03-1.23v-14.32a1.987,1.987,0,0,1,1.99-1.98,1.923,1.923,0,0,1,2,1.98v14.32a5.81,5.81,0,0,1,2.13,1.32,6.234,6.234,0,0,1,1.67,4.11,5.718,5.718,0,0,1-1.67,4.1A6.252,6.252,0,0,1,1387.9,1041.33Zm0.19-7.65a1.726,1.726,0,0,0-1.28.51l-0.1.1a1.861,1.861,0,0,0,0,2.56,1.624,1.624,0,0,0,1.29.51,1.764,1.764,0,0,0,1.29-.51,2.338,2.338,0,0,0,.61-1.4,1.682,1.682,0,0,0-.52-1.26A1.609,1.609,0,0,0,1388.09,1033.68Z" transform="translate(-1317 -964)"></path>
    </g>
  </use>
</svg>