<svg class="watsapp-icon" viewBox="0 0 381.69067 381.69067">
  <linearGradient id="linearGradientGreen" spreadMethod="pad" gradientTransform="matrix(0,-246.10921,-246.10921,0,146.45584,268.82291)" gradientUnits="userSpaceOnUse" y2="0" x2="1" y1="0" x1="0">
    <stop id="stop24" offset="0" style="stop-opacity:1;stop-color:#4ac14b"></stop>
    <stop id="stop26" offset="1" style="stop-opacity:1;stop-color:#06853a"></stop>
  </linearGradient>
  <use xlink:href="#watsapp" fill="url(#linearGradientGreen)">
    <g id="watsapp" transform="matrix(1.3333333,0,0,-1.3333333,0,381.69067)">
      <path d="m 22.441,145.762 c 0,-26.913 8.768,-51.857 23.62,-72.152 v 0 L 30.575,27.918 78.225,43.059 C 97.802,30.213 121.26,22.714 146.462,22.714 v 0 c 68.37,0 124.009,55.199 124.009,123.048 v 0 c 0,67.866 -55.639,123.061 -124.009,123.061 v 0 c -68.4,0 -124.021,-55.195 -124.021,-123.061"></path>
      <path style="fill:#ffffff;fill-opacity:1;fill-rule:evenodd;stroke:none" d="m 0,0 c -0.87,1.427 -3.168,2.282 -6.6,3.991 -3.447,1.706 -20.392,9.984 -23.546,11.117 -3.152,1.137 -5.466,1.709 -7.749,-1.706 C -40.192,9.983 -46.797,2.282 -48.813,0 c -2.003,-2.286 -4.007,-2.564 -7.454,-0.855 -3.451,1.706 -14.556,5.328 -27.709,16.958 -10.233,9.073 -17.148,20.252 -19.168,23.672 -2,3.415 -0.198,5.264 1.507,6.97 1.555,1.539 3.451,3.991 5.173,5.98 1.726,2.004 2.298,3.435 3.447,5.717 1.15,2.282 0.577,4.27 -0.294,5.98 -0.855,1.705 -7.749,18.528 -10.624,25.378 -2.854,6.831 -5.729,6.576 -7.749,6.576 -2.003,0 -5.721,-0.596 -5.721,-0.596 0,0 -6.907,-0.855 -10.059,-4.274 -3.153,-3.416 -12.052,-11.694 -12.052,-28.5 0,-16.818 12.334,-33.079 14.056,-35.346 1.726,-2.286 23.823,-37.927 58.848,-51.611 35.023,-13.682 35.023,-9.117 41.341,-8.54 6.306,0.555 20.377,8.262 23.251,16.245 C 0.855,-8.263 0.855,-1.416 0,0 m -70.962,149.36 c -65.166,0 -118.157,-52.586 -118.157,-117.243 0,-25.64 8.353,-49.405 22.504,-68.74 l -14.755,-43.532 45.397,14.425 c 18.652,-12.239 41,-19.383 65.011,-19.383 65.138,0 118.145,52.59 118.145,117.23 0,64.657 -53.007,117.243 -118.145,117.243 M 69.563,32.117 c 0,-77.002 -62.915,-139.44 -140.525,-139.44 -24.647,0 -47.803,6.294 -67.933,17.351 l -77.809,-24.726 25.362,74.811 c -12.799,21.017 -20.158,45.663 -20.158,72.004 0,77.018 62.916,139.452 140.538,139.452 77.61,0 140.525,-62.434 140.525,-139.452" transform="translate(216.7041,114.6984)"></path>
    </g>
  </use>
</svg>