<svg viewBox="0 0 125 125">
  <use xlink:href="#clock-outside" fill="url(#linear-gradient-shape)" transform="translate(-20 12)">
    <g id="clock-outside">
      <path d="m1071.14 1041.93h8.17a2.025 2.025 0 0 1 0 4.05h-8.17a2.025 2.025 0 0 1 0-4.05zm-8.17-7.77h14.21a2.03 2.03 0 0 1 0 4.06h-14.21a2.03 2.03 0 0 1 0-4.06zm8.17-7.76h8.17a2.025 2.025 0 0 1 0 4.05h-8.17a2.025 2.025 0 0 1 0-4.05zm-5.24-.15c2.6 0 2.6 4.06 0 4.06s-2.6-4.06 0-4.06zm-17.87 37.7h52.96c-.15-.08-.29-.16-.43-.24l-.12-.06a.991.991 0 0 1 -.17-.11 32.5 32.5 0 0 1 -5.72-4.29h-35.38a2.03 2.03 0 0 1 0-4.06h31.72a30.524 30.524 0 0 1 -2.2-3.3 1.213 1.213 0 0 1 -.1-.14c-.03-.06-.06-.11-.09-.17a32.5 32.5 0 0 1 -4.24-16.04v-.08a32.309 32.309 0 0 1 6.57-19.61h-31.66a2.025 2.025 0 0 1 0-4.05h35.3a32.3 32.3 0 0 1 6.48-4.75h-29.46a2.03 2.03 0 0 1 0-4.06h45.14a32.51 32.51 0 0 1 0 65.02h-68.6a2.03 2.03 0 0 1 0-4.06zm55.93-6.43a2.027 2.027 0 0 1 .74 2.77l-.45.8a28.237 28.237 0 0 0 10.36 2.79v-.92a2.02 2.02 0 1 1 4.04 0v.92a27.939 27.939 0 0 0 8.73-2.06l-.88-1.52a2.023 2.023 0 1 1 3.5-2.03l1 1.74a28.49 28.49 0 0 0 8.49-7.72l-2.24-1.3a2.045 2.045 0 0 1 -.74-2.77 2.021 2.021 0 0 1 2.76-.75l2.38 1.38a28.327 28.327 0 0 0 3.25-11.32h-2.97a2.03 2.03 0 0 1 0-4.06h2.97a28.327 28.327 0 0 0 -3.25-11.32l-2.38 1.37a1.951 1.951 0 0 1 -1.01.28 2.033 2.033 0 0 1 -1.01-3.79l2.25-1.3a28.648 28.648 0 0 0 -8.5-7.72l-1 1.74a2.006 2.006 0 0 1 -1.75 1.01 1.965 1.965 0 0 1 -1.01-.27 2.045 2.045 0 0 1 -.74-2.77l.88-1.53a28.209 28.209 0 0 0 -8.73-2.05v.92a2.02 2.02 0 1 1 -4.04 0v-.92a27.835 27.835 0 0 0 -10.37 2.78l.47.8a2.045 2.045 0 0 1 -.74 2.77 2.068 2.068 0 0 1 -1.01.27 2.006 2.006 0 0 1 -1.75-1.01l-.46-.8a28.435 28.435 0 0 0 -4.04 3.34 28.207 28.207 0 0 0 -3.55 4.28l.8.46a2.033 2.033 0 0 1 .73 2.77 2.006 2.006 0 0 1 -1.75 1.01 1.905 1.905 0 0 1 -1-.27l-.81-.46a28.345 28.345 0 0 0 -2.76 10.41h.91a2.03 2.03 0 0 1 0 4.06h-.91a28.237 28.237 0 0 0 2.78 10.4l.79-.46a2.027 2.027 0 0 1 2.01 3.52l-.78.45a28.617 28.617 0 0 0 7.59 7.61l.45-.78a2.007 2.007 0 0 1 2.75-.75z" transform="translate(-1020 -977)"></path>
    </g>
  </use>
  <use xlink:href="#clock-inside" transform="translate(62 55)" fill="#ffffff">
    <g id="clock-inside">
      <path d="M1116.99,1020a15,15,0,1,0,15,15A15.01,15.01,0,0,0,1116.99,1020Zm0,25.96a10.96,10.96,0,1,1,10.96-10.96A10.977,10.977,0,0,1,1116.99,1045.96Zm4.61-12.98h-2.59v-4.66a2.02,2.02,0,0,0-4.04,0V1035a2.027,2.027,0,0,0,2.02,2.02h4.61A2.02,2.02,0,0,0,1121.6,1032.98Z" transform="translate(-1102 -1020)"></path>
    </g>
  </use>
</svg>