<svg width="25" height="25" viewBox="0 0 25 25">
  <use xlink:href="#inst">
    <g id="inst">
          <path d="m517.187 716h-9.375a7.813 7.813 0 0 0 -7.812 7.813v9.375a7.813 7.813 0 0 0 7.812 7.812h9.375a7.813 7.813
          0 0 0 7.813-7.812v-9.375a7.814 7.814 0 0 0 -7.813-7.813zm5.469 17.188a5.474 5.474 0 0 1 -5.469 5.468h-9.375a5.474
          5.474 0 0 1 -5.468-5.468v-9.375a5.474 5.474 0 0 1 5.468-5.469h9.375a5.475 5.475 0 0 1 5.469 5.469zm-10.156-10.938a6.25
          6.25 0 1 0 6.25 6.25 6.25 6.25 0 0 0 -6.25-6.25zm0 10.156a3.906 3.906 0 1 1 3.906-3.906 3.911 3.911 0 0 1 -3.906
          3.906zm6.719-11.457a.833.833 0 1 1 -.833.832.832.832 0 0 1 .833-.832z" transform="translate(-500 -716)"></path>
      </g>
  </use>
</svg>