<svg viewBox="15 0 125 125">
  <linearGradient id="linear-gradient-shape" x1="0" y1="0%" x2="0" y2="100%">
      <stop offset="0%" stop-color="#f93513"></stop>
      <stop offset="86%" stop-color="#f94d13"></stop>
  </linearGradient>
  <use xlink:href="#coeff-multiply-outside" fill="url(&quot;#linear-gradient-shape&quot;)">
    <g id="coeff-multiply-outside">
      <path d="M483.961,1020.25a1.985,1.985,0,1,1-1.961,1.99A2,2,0,0,1,483.961,1020.25Zm51.508,7.21c0,18.61-.012,41.98-0.012,41.98l5.63,5.76,6.2-6.34a1.955,1.955,0,0,1,2.789,0l6.2,6.34,6.195-6.34a1.955,1.955,0,0,1,2.789,0l6.2,6.34,5.63-5.76h0v-43.75c0-1.94.691-2.69,1.97-2.69s1.953,1.04,1.953,2.66v44.59a2.028,2.028,0,0,1-.567,1.4l-7.59,7.76a1.955,1.955,0,0,1-2.789,0l-6.2-6.34-6.2,6.34a1.955,1.955,0,0,1-2.789,0l-6.2-6.34-6.2,6.34a1.955,1.955,0,0,1-2.789,0l-7.59-7.76a2.028,2.028,0,0,1-.567-1.4v-25.96l-35.907-.03A13.727,13.727,0,0,1,482,1030.47v-0.25a1.961,1.961,0,0,1,3.921,0v0.25a9.778,9.778,0,0,0,9.707,9.82h5.66a9.778,9.778,0,0,0,9.707-9.82v-18.43H485.922v2.28a1.961,1.961,0,0,1-3.921,0v-4.26a1.974,1.974,0,0,1,1.96-1.99H511v-5.68A12.33,12.33,0,0,1,523.237,990h46.454A11.393,11.393,0,0,1,581,1001.45v2.11c0,1.7-.61,2.44-2,2.44s-1.927-.93-1.927-2.89v-1.66a7.441,7.441,0,0,0-7.386-7.48H532.2a12.42,12.42,0,0,1,3.272,8.42s0-1.91,0-.01c0,2.43-3.92,2.78-3.92.29v-0.28a8.319,8.319,0,1,0-16.637,0v28.08a13.848,13.848,0,0,1-4.1,9.85h20.74V1027.3C531.555,1024.34,535.469,1023.43,535.469,1027.46Zm35.359-6.8L568,1017.83l-2.828,2.83a2,2,0,1,1-2.829-2.83l2.829-2.83-2.829-2.83a2,2,0,1,1,2.829-2.83l2.828,2.83,2.828-2.83a2,2,0,1,1,2.829,2.83l-2.829,2.83,2.829,2.83A2,2,0,1,1,570.828,1020.66Z" transform="translate(-456 -964)"></path>
    </g>
  </use>
  <use xlink:href="#coeff-1-6-inside" transform="translate(73 44)" fill="#ffffff">
  <g id="coeff-1-6-inside">
    <path d="M543.97,1032.58H560.3c2.518,0,2.522-3.97,0-3.97H543.97C541.452,1028.61,541.449,1032.58,543.97,1032.58Zm24.561,5.44H543.97c-2.518,0-2.521,3.97,0,3.97h24.561C571.05,1041.99,571.053,1038.02,568.531,1038.02Zm0,9.42H543.97c-2.518,0-2.521,3.97,0,3.97h24.561C571.05,1051.41,571.053,1047.44,568.531,1047.44Zm-0.316-14.71a1.985,1.985,0,1,0-1.961-1.98A1.989,1.989,0,0,0,568.215,1032.73Zm-39.208-24.16v3.21h2.16v9.39h4.248v-12.6h-6.408Zm11.97,12.78a2.367,2.367,0,0,0,1.7-.65,2.256,2.256,0,0,0,.675-1.69,2.174,2.174,0,0,0-.675-1.66,2.58,2.58,0,0,0-3.4,0,2.174,2.174,0,0,0-.675,1.66,2.256,2.256,0,0,0,.675,1.69,2.367,2.367,0,0,0,1.7.65h0Zm11.628-8.33a4.206,4.206,0,0,0-2.5.7,2.554,2.554,0,0,1,.927-1.59,2.85,2.85,0,0,1,1.809-.55,3.866,3.866,0,0,1,2.286.66l1.53-2.97a5.761,5.761,0,0,0-1.746-.72,8.455,8.455,0,0,0-2.16-.27,7.785,7.785,0,0,0-3.663.83,5.874,5.874,0,0,0-2.448,2.41,7.674,7.674,0,0,0-.873,3.75,7.016,7.016,0,0,0,.756,3.4,5,5,0,0,0,2.115,2.09,6.807,6.807,0,0,0,3.177.7,6.111,6.111,0,0,0,2.592-.54,4.388,4.388,0,0,0,1.845-1.55,4.055,4.055,0,0,0,.675-2.32,3.828,3.828,0,0,0-.594-2.11,4.069,4.069,0,0,0-1.584-1.42,4.727,4.727,0,0,0-2.142-.5h0Zm-1.08,5.51a1.3,1.3,0,0,1-.936-0.35,1.213,1.213,0,0,1-.36-0.93,1.274,1.274,0,0,1,.36-0.95,1.427,1.427,0,0,1,1.872,0,1.274,1.274,0,0,1,.36.95,1.213,1.213,0,0,1-.36.93,1.3,1.3,0,0,1-.936.35h0Z" transform="translate(-529 -1008.28)"></path>
  </g>
  </use>
</svg>