<svg width="14" height="11" viewBox="0 0 14 11">
  <use xlink:href="#message">
    <g id="message">
      <path class="cls-1" d="M725.75,4089a1.174,1.174,0,0,0,.819-0.31l-3.966-3.97c-0.095.07-.188,0.14-0.275,0.2q-0.446.33-.723,0.51a4.084,4.084,0,0,1-.738.38,2.2,2.2,0,0,1-.859.19h-0.016a2.2,2.2,0,0,1-.859-0.19,4.063,4.063,0,0,1-.739-0.38q-0.278-.18-0.722-0.51c-0.083-.06-0.175-0.13-0.274-0.2l-3.967,3.97a1.173,1.173,0,0,0,.819.31h11.5Zm-11.961-6.77a4.41,4.41,0,0,1-.789-0.68v6.03l3.5-3.49Q715.448,4083.355,713.789,4082.23Zm12.43,0q-1.6,1.08-2.714,1.86l3.5,3.49v-6.03A4.589,4.589,0,0,1,726.219,4082.23ZM725.75,4078h-11.5a1.121,1.121,0,0,0-.926.41,1.572,1.572,0,0,0-.324,1.01,1.819,1.819,0,0,0,.43,1.07,3.935,3.935,0,0,0,.914.9q0.265,0.2,1.6,1.11c0.481,0.34.9,0.63,1.259,0.88,0.306,0.21.57,0.4,0.788,0.55a0.939,0.939,0,0,0,.117.08c0.056,0.04.127,0.09,0.215,0.16,0.17,0.12.31,0.22,0.422,0.29s0.248,0.16.407,0.26a2.82,2.82,0,0,0,.449.21,1.159,1.159,0,0,0,.39.07h0.016a1.16,1.16,0,0,0,.391-0.07,2.9,2.9,0,0,0,.449-0.21c0.159-.1.294-0.18,0.406-0.26s0.253-.17.422-0.29c0.088-.07.159-0.12,0.215-0.16a0.868,0.868,0,0,0,.117-0.08c0.17-.12.435-0.3,0.791-0.55,0.647-.45,1.6-1.11,2.865-1.99a3.845,3.845,0,0,0,.953-0.96,2.083,2.083,0,0,0,.383-1.18A1.265,1.265,0,0,0,725.75,4078Z" transform="translate(-713 -4078)"></path>
    </g>
  </use>
</svg>