<svg viewBox="12 6 125 125">
  <use xlink:href="#tv-outside" fill="url(#linear-gradient-shape)" fill-rule="evenodd">
    <g id="tv-outside">
      <path d="M851.99,1083.99a1.924,1.924,0,0,1-1.924-1.92v-4.13H783.739v4.13a1.924,1.924,0,0,1-3.848,0v-4.13h-9.967a1.932,1.932,0,0,1-1.924-1.93v-64.45a1.932,1.932,0,0,1,1.924-1.93h15.815v-3.93a7.822,7.822,0,0,1,.137-1.45l0.108-.58-17.1-14.263a1.927,1.927,0,1,1,2.463-2.963L787.9,1000.25l0.64-.532a7.743,7.743,0,0,1,9.941,0l0.64,0.532,16.55-13.806a1.927,1.927,0,0,1,2.463,2.963l-17.1,14.263,0.108,0.58a7.739,7.739,0,0,1,.138,1.45v3.93h62.6a1.932,1.932,0,0,1,1.924,1.93v23.24a1.924,1.924,0,1,1-3.848,0v-21.31H771.848v60.59h90.109v-19.75a1.924,1.924,0,1,1,3.848,0v21.68a1.932,1.932,0,0,1-1.924,1.93h-9.967v4.13A1.923,1.923,0,0,1,851.99,1083.99Zm-58.479-82.22a3.929,3.929,0,0,0-3.924,3.93v3.93h7.848v-3.93A3.93,3.93,0,0,0,793.511,1001.77Zm70.467,44.82a2.025,2.025,0,1,1,2.022-2.02A2.026,2.026,0,0,1,863.978,1046.59Z" transform="translate(-742 -960)"></path>
    </g>
  </use>
  <use xlink:href="#tv-inside" transform="translate(38 61)" fill="#ffffff">
    <g id="tv-inside">
      <path d="m781.815 1066.22a1.925 1.925 0 0 1 -1.924-1.93v-41.01a1.925 1.925 0 0 1 1.924-1.93h70.175a1.925 1.925 0 0 1 1.924 1.93v41.01a1.925 1.925 0 0 1 -1.924 1.93zm54.555-3.86h13.7v-8l-.75-.2a10.72 10.72 0 0 1 0-20.75l.75-.2v-8h-13.7zm-17.544-29.15.75.2a10.72 10.72 0 0 1 0 20.75l-.75.2v8h13.7v-37.15h-13.7zm-17.543 29.15h13.7v-8l-.751-.2a10.72 10.72 0 0 1 0-20.75l.751-.2v-8h-13.7zm-17.544-29.15.75.2a10.72 10.72 0 0 1 0 20.75l-.75.2v8h13.7v-37.15h-13.7zm33.163 3.71a6.865 6.865 0 1 0 6.848 6.86 6.863 6.863 0 0 0 -6.85-6.86zm31.663.93a6.858 6.858 0 0 0 0 11.87l1.5.88v-13.63zm-64.826 12.75 1.5-.88a6.857 6.857 0 0 0 0-11.87l-1.5-.88z" transform="translate(-779.875 -1021.34)"></path>
    </g>
  </use>
</svg>